<?xml version="1.0" encoding="iso-8859-1"?>
<!-- Uploaded to: SVG Repo, www.svgrepo.com, Generator: SVG Repo Mixer Tools -->
<svg fill="#000000" height="800px" width="800px" version="1.1" id="Layer_1" xmlns="http://www.w3.org/2000/svg" xmlns:xlink="http://www.w3.org/1999/xlink" 
	 viewBox="0 0 512 512" xml:space="preserve">
<g>
	<g>
		<path d="M481.046,164.942c-20.837-35.061-49.048-54.371-79.436-54.371c-8.035,0-16.012,1.401-23.8,4.133
			c-17.061-18.901-36.707-28.854-57.151-28.854c-7.165,0-14.214,1.208-21.099,3.606c4.743-10.508,11.346-20.443,19.553-29.295
			c1.784-1.925,2.644-4.529,2.357-7.138c-0.288-2.609-1.695-4.964-3.855-6.453c-14.302-9.86-28.604-19.718-42.922-29.578
			c-3.695-2.545-8.699-1.993-11.753,1.292c-20.303,21.858-34.38,47.833-40.913,75.348c-9.878-5.162-20.157-7.781-30.688-7.781
			c-20.444,0-40.091,9.954-57.151,28.854c-7.788-2.732-15.764-4.133-23.799-4.133c-30.389,0-58.599,19.31-79.437,54.371
			C10.992,198.528,0,242.99,0,290.138s10.992,91.611,30.953,125.196c20.838,35.061,49.048,54.371,79.437,54.371
			c8.035,0,16.011-1.401,23.799-4.133c17.061,18.901,36.708,28.854,57.151,28.854c11.857,0,23.395-3.315,34.402-9.851
			c9.002,7.901,18.71,12.028,28.825,12.028c10.55,0,20.66-4.485,29.985-13.066c11.518,7.226,23.637,10.89,36.109,10.89
			c20.444,0,40.09-9.954,57.151-28.854c7.788,2.732,15.764,4.133,23.799,4.133c30.387,0,58.598-19.31,79.436-54.371
			C501.008,381.75,512,337.288,512,290.14C512,242.991,501.008,198.529,481.046,164.942z M271.029,36.423
			c9.358,6.446,18.712,12.892,28.062,19.34c-8.813,11.154-15.616,23.511-20.068,36.445c-7.747-5.614-15.958-8.533-24.456-8.533
			c-3.867,0-7.676,0.612-11.408,1.797C249.079,67.912,258.517,51.259,271.029,36.423z M110.391,451.622
			c-23.754,0-46.446-16.168-63.892-45.526c-18.323-30.832-28.415-72.013-28.415-115.958s10.092-85.126,28.415-115.958
			c17.448-29.358,40.138-45.526,63.891-45.526c3.967,0,7.931,0.467,11.864,1.376c-26.017,38.372-41.303,97.006-41.303,160.108
			s15.287,121.738,41.303,160.108C118.321,451.154,114.357,451.622,110.391,451.622z M191.34,476.344
			c-20.938,0-37.371-14.82-47.473-27.254c-28.074-34.539-44.834-93.96-44.834-158.951s16.76-124.412,44.835-158.953
			c10.099-12.433,26.532-27.252,47.47-27.252c7.455,0,14.84,1.885,22.055,5.597c-7.176,9.942-13.707,22.625-19.387,37.849
			c-14.281,38.274-22.146,88.974-22.146,142.759c0,53.785,7.865,104.486,22.146,142.76c5.681,15.223,12.21,27.905,19.387,37.847
			C206.18,474.458,198.795,476.344,191.34,476.344z M254.567,478.521c-15.176,0-31.481-19.418-43.617-51.943
			c-13.546-36.302-21.006-84.757-21.006-136.438c0-111.015,34.057-188.381,64.623-188.381c15.176,0,31.482,19.418,43.617,51.943
			c13.546,36.303,21.006,84.757,21.006,136.438C319.19,401.155,285.132,478.521,254.567,478.521z M368.131,449.092
			c-10.099,12.432-26.532,27.252-47.47,27.252c-8.171,0-16.258-2.263-24.128-6.719c6.865-9.77,13.124-22.065,18.595-36.726
			c14.281-38.274,22.146-88.974,22.146-142.76c0-53.786-7.865-104.485-22.146-142.759c-5.471-14.661-11.731-26.956-18.596-36.727
			c7.87-4.456,15.957-6.719,24.129-6.719c20.938,0,37.371,14.82,47.471,27.254c28.074,34.538,44.834,93.959,44.834,158.951
			S396.206,414.551,368.131,449.092z M465.5,406.097c-17.448,29.358-40.138,45.526-63.89,45.526c-3.967,0-7.931-0.467-11.864-1.376
			c26.017-38.371,41.303-97.006,41.303-160.108s-15.285-121.738-41.303-160.108c3.933-0.908,7.896-1.376,11.864-1.376
			c23.752,0,46.442,16.168,63.89,45.526c18.323,30.832,28.415,72.013,28.415,115.958C493.915,334.084,483.825,375.264,465.5,406.097
			z"/>
	</g>
</g>
</svg>