<?xml version="1.0" encoding="iso-8859-1"?>
<!-- Uploaded to: SVG Repo, www.svgrepo.com, Generator: SVG Repo Mixer Tools -->
<svg fill="#000000" height="800px" width="800px" version="1.1" id="Layer_1" xmlns="http://www.w3.org/2000/svg" xmlns:xlink="http://www.w3.org/1999/xlink" 
	 viewBox="0 0 512.466 512.466" xml:space="preserve">
<g transform="translate(1 1)">
	<g>
		<g>
			<path d="M93.72,144.52c2.56,0,4.267-0.853,5.973-2.56c6.827-6.827,16.213-9.387,24.747-6.827
				c4.267,0.853,9.387-1.707,10.24-5.973c1.707-4.267-1.707-9.387-5.973-10.24c-14.507-4.267-29.867,0-40.96,11.093
				c-3.413,3.413-3.413,8.533,0,11.947C89.453,143.667,91.16,144.52,93.72,144.52z"/>
			<path d="M148.333,74.547c0.853,0.853,2.56,1.707,4.267,1.707c2.56,0,5.12-1.707,7.68-4.267c0.853-1.707,5.12-4.267,10.24-4.267
				c2.56,0,6.827,0.853,8.533,4.267c2.56,4.267,7.68,5.12,11.947,2.56s5.12-7.68,2.56-11.947
				c-5.12-7.68-14.507-11.947-23.893-11.947s-19.627,5.12-23.893,11.947C143.213,66.867,144.067,71.987,148.333,74.547z"/>
			<path d="M323.267,289.587c0-5.12-3.413-8.533-8.533-8.533c-9.387,0-17.067-7.68-17.067-17.067c0-5.12-3.413-8.533-8.533-8.533
				s-8.533,3.413-8.533,8.533c0,18.773,15.36,34.133,34.133,34.133C319.853,298.12,323.267,294.707,323.267,289.587z"/>
			<path d="M314.733,246.92c9.387,0,17.067,7.68,17.067,17.067c0,5.12,3.413,8.533,8.533,8.533c5.12,0,8.533-3.413,8.533-8.533
				c0-18.773-15.36-34.133-34.133-34.133c-5.12,0-8.533,3.413-8.533,8.533S309.613,246.92,314.733,246.92z"/>
			<path d="M509.293,61.747L462.36,9.693c-8.533-9.387-20.48-12.8-31.573-9.387S411.16,13.107,408.6,24.2l-15.533,69.12h-28.006
				c-2.77-13.514-11.983-25.056-24.728-30.72c-2.56-19.627-17.92-34.987-37.547-37.547c-6.827-15.36-22.187-25.6-39.253-25.6
				c-11.093,0-22.187,4.267-29.867,12.8c-7.68-8.533-18.773-12.8-29.867-12.8c-10.108,0-19.382,3.333-27.007,9.985
				c-1.703-1.667-3.573-3.166-5.586-4.463c-5.295-3.676-11.719-5.522-18.607-5.522c-16.213,0-29.867,11.093-33.28,25.6
				C97.987,24.2,80.067,39.56,76.653,60.04c-17.067,3.413-30.72,17.067-34.133,34.133c-19.627,3.413-34.987,21.333-34.987,41.813
				c0,10.209,3.435,19.475,9.224,26.75C6.281,165.925-1,175.435-1,187.187c0,11.627,7.129,21.054,17.427,24.342l15,267.498
				c0.853,17.92,16.213,32.427,34.133,32.427h13.653h39.253h106.667h12.8h51.2h51.2h51.2h12.8c21.333,0,38.4-17.067,40.107-38.4
				l14.971-328.533h8.922c5.12,0,8.533-3.413,8.533-8.533v-34.133c0-5.12-3.413-8.533-8.533-8.533h-57.432l14.766-65.707
				c1.707-5.973,5.12-9.387,10.24-11.093c5.12-0.853,10.24,0,13.653,4.267l46.933,52.053c3.413,3.413,8.533,4.267,11.947,0.853
				C511.853,70.28,512.707,65.16,509.293,61.747z M50.2,110.387c5.12,0,8.533-3.413,8.533-8.533c0-14.507,11.093-25.6,25.6-25.6
				c9.387,0,17.92,5.12,22.187,12.8c1.707,2.56,5.12,4.267,7.68,4.267c0.853,0,2.56,0,4.267-0.853c3.413-2.56,5.12-7.68,2.56-11.947
				c-6.041-10.068-15.784-17.474-27.14-20.187c3.05-10.72,12.659-18.213,24.58-18.213c1.707,0,4.267,0,5.973,0.853
				c2.56,0.853,5.973,0,7.68-1.707c2.56-1.707,3.413-4.267,3.413-6.827c0-0.853,0-0.853,0-0.853c0-9.387,7.68-17.067,17.067-17.067
				c0.527,0,1.05,0.024,1.569,0.068c0.016,0.001,0.032,0.003,0.048,0.005c4.155,0.369,8.005,2.148,10.833,4.92
				c0.106,0.111,0.215,0.217,0.317,0.331c0.033,0.034,0.063,0.07,0.096,0.104c1.016,1.154,1.862,2.477,2.497,3.958
				c0.255,1.022,0.68,1.872,1.218,2.587c0.225,0.817,0.401,1.658,0.488,2.533c0.853,4.267,4.267,7.68,8.533,7.68
				c0,0,0.853,0,0.853-0.853c5.12,0,7.68-4.267,7.68-9.387c-0.242-1.531-0.591-3.032-1.038-4.494
				c4.879-4.667,11.213-7.452,18.104-7.452c9.387,0,17.92,5.12,22.187,13.653c3.413,5.12,11.947,5.12,15.36,0
				c4.267-8.533,12.8-13.653,22.187-13.653c8.734,0,16.54,4.116,21.116,10.657c-9.925,3.283-18.506,10.174-24.529,19.209
				c-1.707,4.267-0.853,9.387,3.413,11.947c1.707,0.853,2.56,0.853,4.267,0.853c3.413,0,5.973-1.707,7.68-4.267
				c4.267-7.68,12.8-12.8,22.187-12.8c14.507,0,25.6,11.093,25.6,24.747c0,0.853,0,1.707,0,1.707c0,4.267,2.56,7.68,5.973,8.533
				c8.533,2.56,15.36,8.533,17.92,16.213H161.133c-5.12,0-8.533,3.413-8.533,8.533v34.133c0,5.12,3.413,8.533,8.533,8.533h8.533
				l0.853,17.067H50.2c-14.507,0-25.6-11.093-25.6-25.6C24.6,121.48,35.693,110.387,50.2,110.387z M399.67,144.52l-16.273,349.867
				H349.72V322.531c19.894-11.964,33.28-33.764,33.28-58.545c0-25.131-13.773-47.187-34.133-59.037v-60.43H399.67z M263.533,263.987
				c0-19.888,11.499-37.209,28.17-45.677c0.59-0.096,1.165-0.226,1.697-0.403c6.765-3.383,14.159-5.084,21.559-5.114
				c6.897,0.03,13.483,1.441,19.495,3.971c0.83,0.358,1.653,0.737,2.466,1.143c0.352,0.352,0.851,0.554,1.374,0.676
				c16.384,8.564,27.64,25.728,27.64,45.404c0,20.172-11.825,37.713-28.884,46.044c-0.042,0.013-0.088,0.022-0.13,0.036
				c-0.813,0.406-1.636,0.785-2.466,1.143c-6.012,2.53-12.598,3.941-19.495,3.971c-7.4-0.03-14.793-1.732-21.559-5.114
				c-0.532-0.177-1.106-0.307-1.697-0.403C275.032,301.196,263.533,283.874,263.533,263.987z M331.8,197.895
				c-4.609-1.198-9.406-1.909-14.33-2.106c-0.897-0.042-1.804-0.07-2.737-0.07s-1.839,0.028-2.737,0.07
				c-4.924,0.197-9.721,0.908-14.33,2.106V144.52H331.8V197.895z M280.6,204.95c-20.36,11.85-34.133,33.906-34.133,59.037
				c0,25.131,13.773,47.187,34.133,59.037v171.363h-34.53L229.797,144.52H280.6V204.95z M179.695,356.055l0.198,4.351
				c-16.206-8.536-27.293-25.598-27.293-45.219c0-17.067,8.533-33.28,23.04-42.667L179.695,356.055z M174.257,236.72l0.781,17.134
				c-23.568,10.991-38.651,34.721-38.651,61.333c0,29.173,17.492,54.69,44.384,64.462l4.256,93.405
				c0.317,7.918,2.988,15.245,7.309,21.333h-65.677l-11.264-281.6h57.685L174.257,236.72z M229.4,494.387h-4.267
				c-7.167,0-13.716-3.687-17.997-9.215c-2.39-3.519-3.875-7.701-4.19-12.118l-12.8-268.8l-1.707-34.133l-1.28-25.6h25.173
				L229.4,494.387z M24.6,178.653h25.6h121.173l0.853,17.067H106.52H67.267H24.6c-5.12,0-8.533-3.413-8.533-8.533
				S19.48,178.653,24.6,178.653z M49.347,478.173l-15.36-265.387h25.088l11.264,281.6h-3.925
				C57.027,494.387,50.2,487.56,49.347,478.173z M86.893,494.387L75.8,212.787h23.04l11.093,281.6H86.893z M297.667,494.387V330.078
				c5.46,1.419,11.179,2.175,17.067,2.175s11.607-0.757,17.067-2.175v164.309H297.667z M426.52,472.2
				c-0.853,12.8-11.093,22.187-23.04,22.187h-3.413l17.067-349.867h25.6L426.52,472.2z M459.8,127.453h-8.533H408.6h-68.267h-51.2
				h-68.267H178.2h-8.533v-17.067H357.4h40.96c0.853,0,0.853,0,1.707,0H459.8V127.453z"/>
		</g>
	</g>
</g>
</svg>