<svg width="375" height="107" viewBox="0 0 375 107" fill="none" xmlns="http://www.w3.org/2000/svg">
<g filter="url(#filter0_d_19_41)">
<path d="M0 20C0 8.95429 8.95431 0 20 0H355C366.046 0 375 8.95431 375 20V77.6041C375 79.1683 374.532 80.6968 373.657 81.9932C372.16 84.2103 369.637 85.5117 366.963 85.4459L336.862 84.7053C334.093 84.6372 331.341 85.1447 328.779 86.1957L308.666 94.4462C304.173 96.2894 299.163 96.4347 294.571 94.855L267.925 85.6896C265.832 84.9696 263.633 84.6021 261.42 84.6021L250.733 84.6021C245.716 84.6021 240.982 86.9208 237.906 90.8837L236.763 92.3564C230.949 99.8491 219.676 99.987 213.68 92.6389C209.745 87.8173 203.208 85.9835 197.34 88.0551L179.781 94.2533C175.727 95.6846 171.319 95.7711 167.211 94.4999L139.742 85.9992C137.216 85.2176 134.522 86.5612 133.627 89.0492C132.146 93.1674 126.439 93.4725 124.526 89.5358L122.663 85.7001C122.616 85.6023 122.591 85.4951 122.591 85.3864C122.591 84.9649 122.23 84.6341 121.81 84.6712L111.865 85.5515H99.6526C95.8301 85.5515 92.0928 86.6812 88.9102 88.7985L86.2287 90.5826C79.1767 95.2743 69.8637 94.6985 63.4434 89.1737C60.0158 86.2242 55.6438 84.6021 51.1218 84.6021L29.5003 84.602C27.2499 84.602 25.2929 86.1445 24.7672 88.3326C23.7429 92.5955 18.047 93.4379 15.8327 89.654L14.3971 87.2006C13.1539 85.0763 10.7415 83.9243 8.3079 84.293L5.48486 84.7206C2.59854 85.1579 0 82.9233 0 80.0041V20Z" fill="#FFDD34"/>
<path d="M20 0.5H355C365.77 0.5 374.5 9.23045 374.5 20V77.6045C374.5 79.0689 374.063 80.5002 373.243 81.7139C371.842 83.7894 369.479 85.0077 366.976 84.9463L336.874 84.2051C334.037 84.1353 331.216 84.6563 328.59 85.7334L308.477 93.9834C304.096 95.7805 299.211 95.922 294.733 94.3818L268.088 85.2168C265.942 84.4788 263.689 84.1026 261.42 84.1025H250.732C245.562 84.1026 240.681 86.4922 237.511 90.5771L236.368 92.0498C230.751 99.2883 219.861 99.4218 214.067 92.3232C209.999 87.3383 203.24 85.4422 197.173 87.584L179.615 93.7822C175.662 95.1777 171.364 95.2617 167.359 94.0225L139.89 85.5215C137.108 84.6609 134.142 86.1404 133.156 88.8799C131.825 92.5815 126.695 92.8558 124.977 89.3174L123.113 85.4814C123.099 85.4519 123.091 85.4196 123.091 85.3867C123.091 84.6717 122.478 84.1098 121.766 84.1729L111.844 85.0518H99.6523C95.7313 85.0518 91.8973 86.2099 88.6328 88.3818L85.9521 90.166C79.0868 94.7336 70.0199 94.1734 63.7695 88.7949C60.2512 85.7674 55.7636 84.1026 51.1221 84.1025L29.5 84.1016C27.0186 84.1017 24.861 85.8031 24.2812 88.2158C23.3622 92.0408 18.2516 92.7965 16.2646 89.4014L14.8281 86.9482C13.4816 84.6474 10.8692 83.3997 8.2334 83.7988L5.41016 84.2266C2.82637 84.618 0.5 82.6172 0.5 80.0039V20C0.5 9.23045 9.23045 0.5 20 0.5Z" stroke="black"/>
</g>
<defs>
<filter id="filter0_d_19_41" x="-4" y="0" width="383" height="106.064" filterUnits="userSpaceOnUse" color-interpolation-filters="sRGB">
<feFlood flood-opacity="0" result="BackgroundImageFix"/>
<feColorMatrix in="SourceAlpha" type="matrix" values="0 0 0 0 0 0 0 0 0 0 0 0 0 0 0 0 0 0 127 0" result="hardAlpha"/>
<feOffset dy="4"/>
<feGaussianBlur stdDeviation="2"/>
<feComposite in2="hardAlpha" operator="out"/>
<feColorMatrix type="matrix" values="0 0 0 0 0 0 0 0 0 0 0 0 0 0 0 0 0 0 0.25 0"/>
<feBlend mode="normal" in2="BackgroundImageFix" result="effect1_dropShadow_19_41"/>
<feBlend mode="normal" in="SourceGraphic" in2="effect1_dropShadow_19_41" result="shape"/>
</filter>
</defs>
</svg>
